<svg id="visual" viewBox="0 0 900 600" width="900" height="600" xmlns="http://www.w3.org/2000/svg" xmlns:xlink="http://www.w3.org/1999/xlink" version="1.1"><rect x="0" y="0" width="900" height="600" fill="#2a2c2d"></rect><path d="M0 59L129 80L257 267L386 5L514 446L643 69L771 67L900 195L900 601L771 601L643 601L514 601L386 601L257 601L129 601L0 601Z" fill="#343131"></path><path d="M0 267L129 307L257 456L386 484L514 452L643 238L771 287L900 232L900 601L771 601L643 601L514 601L386 601L257 601L129 601L0 601Z" fill="#373437"></path><path d="M0 270L129 164L257 244L386 390L514 152L643 161L771 400L900 209L900 601L771 601L643 601L514 601L386 601L257 601L129 601L0 601Z" fill="#39393d"></path><path d="M0 325L129 465L257 238L386 339L514 406L643 241L771 250L900 233L900 601L771 601L643 601L514 601L386 601L257 601L129 601L0 601Z" fill="#393d40"></path><path d="M0 386L129 471L257 430L386 282L514 478L643 322L771 296L900 499L900 601L771 601L643 601L514 601L386 601L257 601L129 601L0 601Z" fill="#393d40"></path><path d="M0 399L129 450L257 378L386 552L514 475L643 453L771 490L900 451L900 601L771 601L643 601L514 601L386 601L257 601L129 601L0 601Z" fill="#39393d"></path><path d="M0 516L129 513L257 539L386 511L514 408L643 493L771 569L900 581L900 601L771 601L643 601L514 601L386 601L257 601L129 601L0 601Z" fill="#373437"></path><path d="M0 556L129 482L257 488L386 541L514 550L643 526L771 542L900 538L900 601L771 601L643 601L514 601L386 601L257 601L129 601L0 601Z" fill="#343131"></path></svg>